PathFileType	4	(X/Y/Z)	T1_P2_NoVision_NoMovement_2_0-733.trc
DataRate	CameraRate	NumFrames	NumMarkers	Units	OrigDataRate	OrigDataStartFrame	OrigNumFrames
60	60	4	27	m	60	366	733
Frame#	Time	RHip			RKnee			RAnkle			RBigToe			RSmallToe			RHeel			LHip			LKnee			LAnkle			LBigToe			LSmallToe			LHeel			Neck			Head			Nose			RShoulder			RElbow			RWrist			RThumb			RIndex			RPinky			LShoulder			LElbow			LWrist			LThumb			LIndex			LPinky		
		X1	Y1	Z1	X2	Y2	Z2	X3	Y3	Z3	X4	Y4	Z4	X5	Y5	Z5	X6	Y6	Z6	X7	Y7	Z7	X8	Y8	Z8	X9	Y9	Z9	X10	Y10	Z10	X11	Y11	Z11	X12	Y12	Z12	X13	Y13	Z13	X14	Y14	Z14	X15	Y15	Z15	X16	Y16	Z16	X17	Y17	Z17	X18	Y18	Z18	X19	Y19	Z19	X20	Y20	Z20	X21	Y21	Z21	X22	Y22	Z22	X23	Y23	Z23	X24	Y24	Z24	X25	Y25	Z25	X26	Y26	Z26	X27	Y27	Z27
367	6.116666666666666	456.0399238102275	3673.609290971273	548.9035027812095	855.5345054833178	3717.713142057567	567.1573438202497	1247.616008492502	3793.9825040949495	631.7509836690609	1318.8230827511115	3646.773700292558	574.9307243718854	1302.5970163035008	3688.7293676555514	523.4772092949648	1275.7937922471756	3767.7870176578463	635.8567240291093	452.9898664611645	3576.1829527355053	743.7180000398491	842.9375385387157	3572.294934466526	742.2191656780568	1215.1326437535026	3602.5940072079156	723.4088107464697	1316.0894738992768	3528.4312920881803	681.7915811636063	1265.0927753596932	3440.2978328063987	703.9958644300567	1267.384103121292	3622.053512008545	712.0059258796462	-119.21929690415011	3614.0301858630546	642.8180253888995	-381.7318583574491	3612.5017460502586	644.923821285837	-236.26908626676442	3489.5706861023673	602.4118929468091	-34.920970438935754	3764.4011951073862	534.600506793724	207.0006775912693	3680.352826033166	439.0718710439261	352.74355095303724	3527.0462529670317	516.7571359788822	423.30143040776534	3541.084870273075	615.4079594024575	444.13871591167896	3550.7704175733556	629.3544485341079	464.7118761973111	3535.212544077941	615.3975179677338	-36.80376212049483	3553.381049807821	804.541949186432	219.023580921297	3522.880229910266	796.6409597430007	360.4303487617407	3433.4099030873485	604.6348515989547	415.8418188528419	3469.4583703520693	524.1306675062935	439.6710684170411	3494.773644455662	539.4694338848125	459.34694316378193	3503.480405759875	600.0212338490078
368	6.133333333333334	455.4253990255297	3675.4144134144685	550.4384899702899	850.4286088664065	3712.0808384510105	563.7681733929519	1243.915678450152	3790.6360246891536	630.3011711030371	1316.076801703598	3645.658324619824	574.2498186202472	1298.6770241799202	3686.7085041387013	522.6739729180002	1275.318076916601	3767.0815631792207	635.2980606213152	452.33514283197616	3578.3361910181407	746.7108613319763	843.5648244084459	3572.6487777028037	742.5387007271474	1214.056492163624	3602.1591055728236	724.2813251230923	1316.5908030871972	3528.601421121807	682.1407731857825	1263.9323034630206	3438.8853815085736	702.700778704266	1266.0492601234112	3626.833553998744	716.0825885416849	-120.16424341603124	3612.7989477219335	642.6193020616099	-381.82050307293053	3613.7556191105496	646.0187407388051	-236.37889682982163	3493.637494390341	605.9302690414501	-35.18187292129901	3758.197987193489	529.6930350218308	206.15504025008934	3679.903297855987	439.10128927643285	352.38966248143197	3530.7822382806935	519.858199438488	421.4971238576812	3541.373439402725	617.5979944305199	442.4680898524378	3552.0490988142083	631.8485724381653	465.73176028897205	3539.903820189505	619.757597548656	-37.952080496472284	3555.7873269671613	806.457529651542	218.18973509342646	3528.1412690708366	801.5658975214801	360.8169335460534	3435.9585387740517	607.9901540978711	414.5397284018394	3468.9565729649084	526.2081330080587	438.6334256703867	3494.9775363233075	541.8885378994238	458.3510615605636	3498.0501688152476	600.3775263497972
369	6.15	455.3825954734507	3675.6306960972497	550.6693537629078	845.0850679195339	3701.561975989309	556.3956131105989	1236.9508990353659	3784.150710509012	627.5433840548241	1311.767858311979	3643.9461795184843	573.4003831950988	1294.5196973212971	3685.1121884943614	521.7759416755499	1273.9102897202524	3765.689705673959	634.2873613915915	451.988036686539	3578.6630052455625	748.4341361947954	844.308432215678	3572.0927542880827	742.4716373825896	1212.3767381881796	3600.8301082393778	724.4365550898153	1315.1932541113636	3527.32366793004	681.5062905618819	1262.9247380781803	3438.32298397595	702.1774197979169	1262.9875010221697	3628.988955891074	717.8450426886701	-121.38675617533416	3611.4029718504808	643.3348021686525	-381.865948700843	3614.523914464041	646.7442161064972	-236.47012270738497	3495.3056979250823	607.4553587316725	-35.37589781879802	3753.3762521952867	525.8681250282762	205.3157940104482	3681.6307494773428	439.3112408294186	351.1507351587222	3531.271027420807	520.7804727718615	419.29135046969145	3542.802423540373	619.8601623218585	440.652877941636	3553.8689322137825	634.3143518987291	467.801528934728	3543.834294569023	623.4003986624921	-38.44543708134038	3556.348765026406	806.5845079371002	219.47994795065944	3533.14129648782	805.8863375665732	361.27849748244796	3438.3416438979525	611.5756791323831	412.0891586182162	3468.5473134105487	526.9291095172424	437.67084600075634	3491.3201546064156	539.92705856884	458.4148540985419	3491.4508674489566	600.1793129691968
370	6.166666666666667	455.53643730537084	3675.5105437886873	550.6201443905165	840.6330643892143	3691.793844309802	549.0913627172346	1230.6682881603394	3778.6339598194863	625.0764688622353	1306.6193949961737	3641.9026871299316	572.4219947945601	1291.6040379287867	3684.667782190124	521.2659144955184	1272.093194456481	3763.9054474935538	633.0546227284627	452.25670950764663	3579.594324458524	750.3025346861696	844.3851154480939	3572.082666251472	742.5998590368581	1210.2140383399312	3599.3871574663667	723.992989284163	1312.8775568085207	3526.580753436701	680.791612500963	1262.3191137937347	3438.165187081242	702.0185517744414	1260.3825966055015	3628.9797672958875	717.9735655112956	-122.83761311685973	3609.674404727807	644.3298870902636	-381.6719087147243	3611.765994039229	644.521960054564	-236.53680092453766	3495.354784689357	607.6018150353351	-35.44903264581572	3751.8017715750993	524.6320924898721	204.65987114983196	3683.244735362296	440.1191990099263	349.70494020402583	3528.314127235365	519.9421184727748	418.7329085315081	3545.9345526949373	621.5941546748999	439.87089362052257	3554.8532556623027	635.578980928112	469.896259795481	3545.940382185117	625.2411058070986	-38.488707465774446	3556.3781981611533	806.4528212731485	220.5372999406147	3536.674129827926	808.9280386690724	361.47443995774177	3438.5175921467344	614.316606316221	409.52421502971305	3468.629849507984	526.7070962789998	437.36720214155457	3486.252777868164	535.8179916436085	459.3588194695556	3486.7739003160514	599.7465182886435
